<svg width="15" height="18" viewBox="0 0 15 18" fill="none" xmlns="http://www.w3.org/2000/svg">
<path d="M5.80957 0.12677C8.87078 -0.403498 12.3522 0.842415 14.5566 2.03693L13.3477 4.26642C11.3245 3.17019 8.46349 2.24028 6.24023 2.62579C5.1861 2.80883 4.3154 3.27783 3.68359 4.15216C3.39346 4.55371 3.13486 5.06817 2.93652 5.72345C3.86321 5.28762 4.86027 5.07404 5.78711 5.07404C6.8149 5.07407 7.87811 5.33223 8.71777 5.96075C9.59827 6.62001 10.1474 7.62871 10.1475 8.87872C10.1475 10.1287 9.59824 11.1374 8.71777 11.7967C7.87811 12.4252 6.8149 12.6844 5.78711 12.6844C4.86012 12.6844 3.86333 12.469 2.93652 12.033C3.13488 12.6887 3.39334 13.2035 3.68359 13.6053C4.3154 14.4796 5.18612 14.9486 6.24023 15.1317C8.46342 15.5172 11.3245 14.5882 13.3477 13.492L14.5566 15.7215C12.3522 16.916 8.87074 18.161 5.80957 17.6307C4.2219 17.3554 2.71345 16.5937 1.62793 15.0916C0.561514 13.6158 2.29404e-08 11.5618 0 8.87872C1.43692e-05 6.19564 0.561518 4.14159 1.62793 2.66583C2.71345 1.16387 4.22195 0.402062 5.80957 0.12677ZM5.78711 7.61017C4.73134 7.61017 3.58627 8.05552 2.82715 8.87872C3.58627 9.702 4.73129 10.1473 5.78711 10.1473C6.42379 10.1472 6.90636 9.98238 7.19629 9.76544C7.4452 9.57913 7.61035 9.31966 7.61035 8.87872C7.61032 8.43785 7.44518 8.17831 7.19629 7.992C6.90635 7.7751 6.42372 7.6102 5.78711 7.61017Z" fill="black"/>
</svg>
