<svg width="84" height="19" viewBox="0 0 84 19" fill="none" xmlns="http://www.w3.org/2000/svg">
<path d="M83.2026 17.9041H80.6031V16.0734C79.4558 17.4403 77.9425 18.1238 76.063 18.1238C74.6229 18.1238 73.439 17.721 72.5115 16.9155C71.6084 16.0856 71.1568 15.0116 71.1568 13.6935C71.1568 12.3754 71.645 11.3747 72.6213 10.6912C73.5977 10.0078 74.9402 9.66605 76.6488 9.66605H80.3834V9.15346C80.3834 7.3472 79.3704 6.44407 77.3445 6.44407C76.0752 6.44407 74.7571 6.90784 73.3902 7.83538L72.1087 6.04132C73.793 4.72324 75.6725 4.06419 77.7472 4.06419C79.4314 4.06419 80.7617 4.49135 81.7381 5.34566C82.7144 6.17557 83.2026 7.43263 83.2026 9.11685V17.9041ZM80.3468 11.6798H77.1248C75.05 11.6798 74.0126 12.3266 74.0126 13.6203C74.0126 14.2793 74.2689 14.7919 74.7815 15.1581C75.2941 15.4998 76.0142 15.6707 76.9417 15.6707C77.8937 15.6707 78.6992 15.4144 79.3582 14.9018C80.0173 14.3648 80.3468 13.6691 80.3468 12.8148V11.6798Z" fill="#2A68CE"/>
<path d="M58.4941 17.9041H55.6382V4.28387H58.4941V6.73697C58.9579 5.90707 59.5925 5.26023 60.398 4.79646C61.2279 4.30828 62.1066 4.06419 63.0342 4.06419C64.6207 4.06419 65.8778 4.54017 66.8053 5.49212C67.7329 6.44407 68.1967 7.79876 68.1967 9.55621V17.9041H65.3042V10.4349C65.3042 7.92081 64.2668 6.66375 62.1921 6.66375C61.1425 6.66375 60.2637 7.00547 59.5559 7.68892C58.848 8.34797 58.4941 9.28771 58.4941 10.5082V17.9041Z" fill="#2A68CE"/>
<path d="M48.3321 12.0459V17.9041H45.4763V4.28387H48.3321V6.99327C48.7959 6.13896 49.4183 5.4433 50.1994 4.9063C51.0049 4.3693 51.847 4.0886 52.7257 4.06419L52.7623 6.95666H52.6159C51.2246 6.95666 50.1628 7.40822 49.4305 8.31135C48.6982 9.21448 48.3321 10.4593 48.3321 12.0459Z" fill="#2A68CE"/>
<path d="M42.2946 12.3388H31.6034C31.6767 13.3152 32.1282 14.1085 32.9581 14.7187C33.788 15.3289 34.7522 15.634 35.8506 15.634C37.5836 15.634 38.8773 15.097 39.7316 14.023L41.3792 15.8171C39.9147 17.3549 37.9986 18.1238 35.6309 18.1238C33.6782 18.1238 32.0428 17.4769 30.7247 16.1832C29.4066 14.8896 28.7476 13.1809 28.7476 11.0574C28.7476 8.9826 29.4188 7.29838 30.7613 6.00471C32.1038 4.71103 33.727 4.06419 35.6309 4.06419C37.5348 4.06419 39.1214 4.6378 40.3907 5.78502C41.6599 6.93225 42.2946 8.45781 42.2946 10.3617V12.3388ZM39.4387 10.0688C39.4387 8.97039 39.0848 8.10388 38.3769 7.46924C37.6935 6.83461 36.8025 6.51729 35.7041 6.51729C34.6057 6.51729 33.6416 6.84682 32.8117 7.50586C32.0062 8.1649 31.6034 9.01921 31.6034 10.0688H39.4387Z" fill="#2A68CE"/>
<path d="M22.4243 6.59051V13.5105C22.4243 14.1695 22.5952 14.6943 22.9369 15.0848C23.303 15.451 23.7912 15.634 24.4014 15.634C24.9628 15.634 25.5487 15.3289 26.1589 14.7187L27.3305 16.7691C26.3053 17.6722 25.1947 18.1237 23.9987 18.1237C22.7538 18.1237 21.7042 17.6966 20.8499 16.8423C19.9956 15.9636 19.5685 14.8285 19.5685 13.4372V6.59051H17.8476V4.28387H19.5685V9.15527e-05H22.4243V4.28387H26.0124V6.59051H22.4243Z" fill="#2A68CE"/>
<path d="M5.80957 0.12677C8.87078 -0.403498 12.3522 0.842415 14.5566 2.03693L13.3477 4.26642C11.3245 3.17019 8.46349 2.24028 6.24023 2.62579C5.1861 2.80883 4.3154 3.27783 3.68359 4.15216C3.39346 4.55371 3.13486 5.06817 2.93652 5.72345C3.86321 5.28762 4.86027 5.07404 5.78711 5.07404C6.8149 5.07407 7.87811 5.33223 8.71777 5.96075C9.59827 6.62001 10.1474 7.62871 10.1475 8.87872C10.1475 10.1287 9.59824 11.1374 8.71777 11.7967C7.87811 12.4252 6.8149 12.6844 5.78711 12.6844C4.86012 12.6844 3.86333 12.469 2.93652 12.033C3.13488 12.6887 3.39334 13.2035 3.68359 13.6053C4.3154 14.4796 5.18612 14.9486 6.24023 15.1317C8.46342 15.5172 11.3245 14.5882 13.3477 13.492L14.5566 15.7215C12.3522 16.916 8.87074 18.161 5.80957 17.6307C4.2219 17.3554 2.71345 16.5937 1.62793 15.0916C0.561514 13.6158 2.29404e-08 11.5618 0 8.87872C1.43692e-05 6.19564 0.561518 4.14159 1.62793 2.66583C2.71345 1.16387 4.22195 0.402062 5.80957 0.12677ZM5.78711 7.61017C4.73134 7.61017 3.58627 8.05552 2.82715 8.87872C3.58627 9.702 4.73129 10.1473 5.78711 10.1473C6.42379 10.1472 6.90636 9.98238 7.19629 9.76544C7.4452 9.57913 7.61035 9.31966 7.61035 8.87872C7.61032 8.43785 7.44518 8.17831 7.19629 7.992C6.90635 7.7751 6.42372 7.6102 5.78711 7.61017Z" fill="#2A68CE"/>
</svg>
